<?xml version="1.0" encoding="utf-8" ?><svg xmlns="http://www.w3.org/2000/svg" xmlns:xlink="http://www.w3.org/1999/xlink" width="1024" height="1024" viewBox="0 0 1024 1024"><path fill="#8B87FE" d="M763.561 574.578C766.715 574.42 770.447 573.992 773.674 573.397C779.738 572.277 786.482 571.799 787.09 579.818C787.225 581.589 786.499 583.073 785.498 584.474C780.725 591.136 775.74 597.715 770.86 604.3C761.867 616.685 752.736 628.97 743.471 641.152L693.998 707.993L664.653 747.809C660.619 753.264 651.819 766.143 646.904 769.564C639.446 773.35 638.243 774.07 629.892 774.24C631.541 774.344 632.677 774.303 634.305 774.755C638.765 775.995 639.65 773.282 644.006 775.164C635.101 785.639 613.594 784.487 604.775 774.632C595.272 763.608 585.959 752.365 576.563 741.176C551.916 711.829 527.018 682.278 503.628 651.926C494.559 640.157 485.212 624.286 477.659 611.513C476.311 609.39 474.857 607.403 473.49 605.321C468.904 598.337 457.148 589.817 460.717 580.477C463.488 577.904 465.375 575.715 469.272 575.885C474.952 576.132 484.853 580.38 489.58 581.401C498.072 583.235 543.672 590.558 548.342 589.252L548.566 588.92C549.935 590.793 565.747 591.391 566.003 591.211C565.654 589.811 564.848 590.641 565.687 588.707L566.517 588.055C568.587 589.978 566.175 588.351 567.468 591.044C576.621 593.939 599.018 592.496 609.006 592.018C614.338 591.763 619.97 592.839 625.065 592.694C663.703 591.598 702.026 583.63 740.27 578.508C747.858 577.494 755.413 575.545 762.957 574.646L763.561 574.578Z"/><path fill="#F8990C" d="M763.561 574.578C766.715 574.42 770.447 573.992 773.674 573.397C779.738 572.277 786.482 571.799 787.09 579.818C787.225 581.589 786.499 583.073 785.498 584.474C780.725 591.136 775.74 597.715 770.86 604.3C761.867 616.685 752.736 628.97 743.471 641.152L693.998 707.993L664.653 747.809C660.619 753.264 651.819 766.143 646.904 769.564C639.446 773.35 638.243 774.07 629.892 774.24C629.409 774.222 628.926 774.199 628.443 774.17C611.048 773.09 603.665 760.212 593.475 747.768C587.838 740.929 582.045 734.22 576.101 727.646C577.748 723.916 581.368 724.655 585.171 722.015C594.815 731.168 607.036 735.563 620.317 734.528C641.694 732.863 650.219 718.751 662.219 703.354L680.64 679.831L725.145 623.263C737.721 607.117 750.294 590.139 763.561 574.578Z"/><path fill="#7FD5FB" d="M477.659 611.513L478.967 611.305C483.949 615.678 494.754 630.749 498.541 633.738C505.84 643.381 514.547 652.776 521.876 662.334C532.054 675.608 542.39 688.427 553.237 701.16C554.338 702.452 561.761 711.483 562.645 712.17C564.195 714.103 574.645 726.499 576.101 727.646C582.045 734.22 587.838 740.929 593.475 747.768C603.665 760.212 611.048 773.09 628.443 774.17C628.926 774.199 629.409 774.222 629.892 774.24C631.541 774.344 632.677 774.303 634.305 774.755C638.765 775.995 639.65 773.282 644.006 775.164C635.101 785.639 613.594 784.487 604.775 774.632C595.272 763.608 585.959 752.365 576.563 741.176C551.916 711.829 527.018 682.278 503.628 651.926C494.559 640.157 485.212 624.286 477.659 611.513Z"/><path fill="#8B5CF6" d="M499.575 629.06C503.279 632.382 507.795 637.852 511.384 641.617C524.834 655.968 538.122 670.47 551.245 685.12C554.662 688.86 568.554 703.011 570.216 705.812C569.416 706.943 572.022 707.269 571.615 708.71C569.644 710.151 567.438 712.548 565.667 714.342C564.446 713.121 564.268 712.64 562.645 712.17C561.761 711.483 554.338 702.452 553.237 701.16C542.39 688.427 532.054 675.608 521.876 662.334C514.547 652.776 505.84 643.381 498.541 633.738C502.51 634.934 505.305 642.876 508.648 644.567C509.952 643.597 509.978 643.716 510.536 642.222C510.266 641.066 501.445 633.272 499.575 629.06Z"/><path fill="#257BFA" d="M460.717 580.477C472.105 596.001 487.188 613.877 499.575 629.06C501.445 633.272 510.266 641.066 510.536 642.222C509.978 643.716 509.952 643.597 508.648 644.567C505.305 642.876 502.51 634.934 498.541 633.738C494.754 630.749 483.949 615.678 478.967 611.305L477.659 611.513C476.311 609.39 474.857 607.403 473.49 605.321C468.904 598.337 457.148 589.817 460.717 580.477Z"/><path fill="#A36DAF" d="M570.216 705.812C570.771 706.181 584.447 720.924 585.171 722.015C581.368 724.655 577.748 723.916 576.101 727.646C574.645 726.499 564.195 714.103 562.645 712.17C564.268 712.64 564.446 713.121 565.667 714.342C567.438 712.548 569.644 710.151 571.615 708.71C572.022 707.269 569.416 706.943 570.216 705.812Z"/><path fill="#8B87FE" d="M411.753 509.418C412.623 508.502 413.367 507.759 414.667 508.711C414.678 508.719 415.856 509.583 416.005 509.396C419.94 504.485 421.689 497.433 425.252 492.236C426.313 490.843 429.941 491.337 430.687 491.366L431.285 491.997C432.225 492.958 432.673 493.659 433.185 494.905C434.055 499.895 433.606 503.501 434.432 507.547C435.709 522.634 440.356 535.155 444.987 549.322C449.918 564.409 455.808 583.027 462.291 597.431C472.867 620.929 488.572 644.737 502.515 666.406L537.464 721.26C545.375 733.502 554.354 746.532 561.916 758.818C565.105 763.342 568.478 767.18 569.152 772.693C570.318 776.973 572.321 787.557 565.993 787.537C556.728 787.507 527.679 784.564 519.55 781.745C512.273 780.998 502.972 779.085 495.479 778.029C468.865 774.279 442.204 769.317 415.656 765.213L367.042 757.558C364.222 757.088 353.119 755.702 351.19 755.103C336.616 753.426 324.905 743.445 325.847 727.979C322.41 714.92 326.102 706.716 331.427 694.958C334.807 687.496 338.331 679.65 341.525 672.099C353.287 643.873 365.754 615.946 378.916 588.345C389.346 566.367 401.191 543.581 410.281 521.092C410.795 520.38 410.875 520.285 411.235 519.479C412.154 516.355 413.883 514.221 414.843 511.552C414.804 511.366 414.764 511.18 414.725 510.994C412.796 511.991 413.329 511.265 410.882 510.536L411.753 509.418Z"/><path fill="#8B5CF6" d="M411.235 519.479L412.713 519.94C413.473 523.088 397.601 563.261 394.94 570.367L368.911 640.741C363.991 653.958 352.995 678.363 352.801 691.385C352.213 730.994 400.759 730.434 427.64 734.987L528.533 752.185C535.209 753.343 557.142 756.415 561.916 758.818C565.105 763.342 568.478 767.18 569.152 772.693C570.318 776.973 572.321 787.557 565.993 787.537C556.728 787.507 527.679 784.564 519.55 781.745C512.273 780.998 502.972 779.085 495.479 778.029C468.865 774.279 442.204 769.317 415.656 765.213L367.042 757.558C364.222 757.088 353.119 755.702 351.19 755.103C336.616 753.426 324.905 743.445 325.847 727.979C322.41 714.92 326.102 706.716 331.427 694.958C334.807 687.496 338.331 679.65 341.525 672.099C353.287 643.873 365.754 615.946 378.916 588.345C389.346 566.367 401.191 543.581 410.281 521.092C410.795 520.38 410.875 520.285 411.235 519.479Z"/><path fill="#7FD5FB" d="M325.847 727.979L326.149 728.446C327.434 730.455 328.25 732.847 329.736 734.767C334.371 740.755 340.805 744.93 348.273 746.347C353.387 747.318 358.668 747.877 363.755 748.868C368.138 749.722 373.017 750.069 377.267 751.158C385.879 751.957 397.234 754.073 405.873 755.502C421.467 758.169 437.086 760.695 452.727 763.078L498.089 770.022C502.251 770.664 516.743 772.706 520.364 773.689L519.215 774.238C519.561 776.663 520.061 779.335 519.55 781.745C512.273 780.998 502.972 779.085 495.479 778.029C468.865 774.279 442.204 769.317 415.656 765.213L367.042 757.558C364.222 757.088 353.119 755.702 351.19 755.103C336.616 753.426 324.905 743.445 325.847 727.979Z"/><path fill="#7CDAFD" d="M325.847 727.979L326.149 728.446C327.434 730.455 328.25 732.847 329.736 734.767C334.371 740.755 340.805 744.93 348.273 746.347C353.387 747.318 358.668 747.877 363.755 748.868C368.138 749.722 373.017 750.069 377.267 751.158C372.676 752.184 363.201 749.135 358.36 748.739C355.216 748.482 351.801 747.797 348.76 747.349C346.205 746.973 343.253 745.265 341.596 746.441C339.514 747.487 334.791 745.249 331.822 744.785C337.243 749.678 342.279 752.698 349.466 754.035C350.078 754.149 350.715 754.728 351.19 755.103C336.616 753.426 324.905 743.445 325.847 727.979Z"/><path fill="#CCAEB0" d="M569.152 772.693C570.318 776.973 572.321 787.557 565.993 787.537C556.728 787.507 527.679 784.564 519.55 781.745C520.061 779.335 519.561 776.663 519.215 774.238L520.364 773.689C530.169 775.377 554.435 780.991 562.505 778.553C565.73 777.578 567.585 775.587 569.152 772.693Z"/><path fill="#8B87FE" d="M387.545 415.426C390.619 415.548 395.322 416.049 397.949 416.02C399.504 416.349 400.258 416.447 401.849 416.589C404.089 416.514 406.675 416.626 408.969 416.641L408.776 417.187C412.226 417.615 416.801 417.479 420.379 417.476C427.61 417.581 442.297 417.926 449.345 418.725L450.082 417.923C453.732 418.399 457.262 418.271 460.693 418.778C466.223 419.595 469.159 417.512 474.292 417.264C478.234 417.857 479.447 417.894 483.52 417.854C485.331 418.35 486.271 418.54 488.087 418.89C487.073 420.795 487.247 420.979 485.655 422.122L484.886 422.157C483.42 424.68 480.376 426.366 478.354 428.442C477.355 429.187 474.14 431.588 473.382 432.535C471.343 434.235 469.339 435.978 467.372 437.761C465.413 439.151 458.291 446.042 456.396 447.932C453.708 450.614 449.773 454.253 447.285 457.012C445.873 458.36 444.058 460.068 442.798 461.522C439.55 464.632 436.345 468.256 433.217 471.553L433.266 472.531C433.334 474.943 433.791 474.683 435.126 476.818C434.517 477.604 433.855 478.333 433.21 479.089C426.305 486.55 419.396 495.791 413.215 503.944C411.765 505.858 408.502 508.882 411.753 509.418L410.882 510.536C407.656 510.337 404.049 517.316 402.027 520.047C386.387 540.395 374.35 562.551 362.366 585.176C355.805 597.564 351.195 610.843 345.539 623.6C336.051 644.997 327.505 666.752 317.952 688.11C317.043 690.142 315.26 692.427 313.202 693.36C308.168 693.171 306.255 686.38 305.165 682.319C302.296 675.771 299.169 666.425 296.53 659.554C289.694 642.06 283.025 624.501 276.522 606.879L260.002 563.352C257.272 556.154 254.07 548.394 251.685 541.143C250.508 539.076 247.258 530.114 246.268 527.546C242.283 517.274 238.39 506.966 234.591 496.624C231.744 488.997 224.158 471.382 222.943 464.234C221.733 457.094 223.451 449.767 227.711 443.91C236.307 432.117 248.089 431.158 261.273 429.046C277.759 426.404 294.494 425.603 310.896 423.03C311.951 423.024 312.866 422.991 313.916 422.948C316.134 422.629 319.568 422.153 321.756 422.038C323.955 421.958 325.121 421.877 327.33 421.578C328.932 421.491 335.783 421.032 337.01 420.598C343.347 415.882 353.653 418.664 361.001 417.17C362.311 416.904 365.295 416.745 366.361 416.126C373.52 415.464 380.643 415.851 387.545 415.426ZM368.725 550.307C367.92 552.111 366.25 556.141 366.053 557.983C364.34 564.413 359.938 571.145 359.419 577.541C359.143 579.076 354.161 587.219 353.011 590.286C347.566 604.803 341.579 619.199 335.498 633.466L327.348 652.499C326.802 653.771 324.184 659.581 323.903 660.562C320.921 667.602 317.841 675.576 313.971 682.211C312.05 685.504 309.663 684.665 306.84 683.186L305.165 682.319C306.255 686.38 308.168 693.171 313.202 693.36C315.26 692.427 317.043 690.142 317.952 688.11C327.505 666.752 336.051 644.997 345.539 623.6C351.195 610.843 355.805 597.564 362.366 585.176C374.35 562.551 386.387 540.395 402.027 520.047C404.049 517.316 407.656 510.337 410.882 510.536L411.753 509.418C408.502 508.882 411.765 505.858 413.215 503.944C419.396 495.791 426.305 486.55 433.21 479.089C433.855 478.333 434.517 477.604 435.126 476.818C433.791 474.683 433.334 474.943 433.266 472.531L433.217 471.553C436.345 468.256 439.55 464.632 442.798 461.522C444.058 460.068 445.873 458.36 447.285 457.012C449.773 454.253 453.708 450.614 456.396 447.932C458.291 446.042 465.413 439.151 467.372 437.761C469.339 435.978 471.343 434.235 473.382 432.535C474.14 431.588 477.355 429.187 478.354 428.442C480.376 426.366 483.42 424.68 484.886 422.157L485.655 422.122C487.247 420.979 487.073 420.795 488.087 418.89C486.271 418.54 485.331 418.35 483.52 417.854C479.447 417.894 478.234 417.857 474.292 417.264C469.159 417.512 466.223 419.595 460.693 418.778C457.262 418.271 453.732 418.399 450.082 417.923L449.345 418.725C442.297 417.926 427.61 417.581 420.379 417.476C404.773 455.012 391.578 493.742 376.038 531.335C374.101 536.02 372.287 540.811 370.573 545.582C369.981 547.187 369.264 548.718 368.725 550.307Z"/><path fill="#F8990C" fill-opacity="0.97254902" d="M368.725 550.307C370.087 553.038 370.106 551.86 372.729 553.614C372.151 554.765 370.693 557.656 369.808 558.465C368.822 558.009 367.065 557.612 366.053 557.983C366.25 556.141 367.92 552.111 368.725 550.307Z"/><path fill="#F8990C" fill-opacity="0.92941177" d="M370.573 545.582C371.284 546.795 372.809 550.812 373.066 552.283L373.206 553.057C373.014 553.388 373.023 553.364 372.729 553.614C370.106 551.86 370.087 553.038 368.725 550.307C369.264 548.718 369.981 547.187 370.573 545.582Z"/><path fill="#F8990C" d="M450.082 417.923C453.732 418.399 457.262 418.271 460.693 418.778C466.223 419.595 469.159 417.512 474.292 417.264C478.234 417.857 479.447 417.894 483.52 417.854C485.331 418.35 486.271 418.54 488.087 418.89C487.073 420.795 487.247 420.979 485.655 422.122L484.886 422.157C483.42 424.68 480.376 426.366 478.354 428.442C477.355 429.187 474.14 431.588 473.382 432.535C471.343 434.235 469.339 435.978 467.372 437.761C465.413 439.151 458.291 446.042 456.396 447.932C453.708 450.614 449.773 454.253 447.285 457.012C445.873 458.36 444.058 460.068 442.798 461.522C439.55 464.632 436.345 468.256 433.217 471.553L433.266 472.531C433.334 474.943 433.791 474.683 435.126 476.818C434.517 477.604 433.855 478.333 433.21 479.089C426.305 486.55 419.396 495.791 413.215 503.944C411.765 505.858 408.502 508.882 411.753 509.418L410.882 510.536C407.656 510.337 404.049 517.316 402.027 520.047C386.387 540.395 374.35 562.551 362.366 585.176C355.805 597.564 351.195 610.843 345.539 623.6C336.051 644.997 327.505 666.752 317.952 688.11C317.043 690.142 315.26 692.427 313.202 693.36C308.168 693.171 306.255 686.38 305.165 682.319L306.84 683.186C309.663 684.665 312.05 685.504 313.971 682.211C317.841 675.576 320.921 667.602 323.903 660.562C324.184 659.581 326.802 653.771 327.348 652.499L335.498 633.466C341.579 619.199 347.566 604.803 353.011 590.286C354.161 587.219 359.143 579.076 359.419 577.541C362.485 573.51 367.232 563.449 369.808 558.465C370.693 557.656 372.151 554.765 372.729 553.614C373.023 553.364 373.014 553.388 373.206 553.057L373.066 552.283C372.809 550.812 371.284 546.795 370.573 545.582C372.287 540.811 374.101 536.02 376.038 531.335C391.578 493.742 404.773 455.012 420.379 417.476C427.61 417.581 442.297 417.926 449.345 418.725L450.082 417.923ZM386.283 531.755C385.175 533.27 384.28 534.763 383.299 536.355C382.061 537.719 379.778 541.744 378.805 543.495C383.465 540.753 381.41 540.455 384.673 537.213C385.437 536.453 385.629 536.776 386.81 535.175C386.912 534.291 387.04 533.41 387.193 532.533C388.067 529.741 392.427 527.461 393.32 521.582C390.38 525.352 388.886 527.904 386.283 531.755Z"/><path fill="#7CDAFD" fill-opacity="0.47058824" d="M393.32 521.582C392.427 527.461 388.067 529.741 387.193 532.533L386.283 531.755C388.886 527.904 390.38 525.352 393.32 521.582Z"/><path fill="#7CDAFD" fill-opacity="0.67058825" d="M383.299 536.355C384.32 536.809 385.681 535.662 386.81 535.175C385.629 536.776 385.437 536.453 384.673 537.213C381.41 540.455 383.465 540.753 378.805 543.495C379.778 541.744 382.061 537.719 383.299 536.355Z"/><path fill="#7CDAFD" fill-opacity="0.34117648" d="M386.283 531.755L387.193 532.533C387.04 533.41 386.912 534.291 386.81 535.175C385.681 535.662 384.32 536.809 383.299 536.355C384.28 534.763 385.175 533.27 386.283 531.755Z"/><path fill="#7FD5FB" d="M433.217 471.553L433.266 472.531C433.334 474.943 433.791 474.683 435.126 476.818C434.517 477.604 433.855 478.333 433.21 479.089C426.305 486.55 419.396 495.791 413.215 503.944C411.765 505.858 408.502 508.882 411.753 509.418L410.882 510.536C407.656 510.337 404.049 517.316 402.027 520.047C386.387 540.395 374.35 562.551 362.366 585.176C355.805 597.564 351.195 610.843 345.539 623.6C336.051 644.997 327.505 666.752 317.952 688.11C317.043 690.142 315.26 692.427 313.202 693.36C308.168 693.171 306.255 686.38 305.165 682.319L306.84 683.186C309.663 684.665 312.05 685.504 313.971 682.211C317.841 675.576 320.921 667.602 323.903 660.562C324.184 659.581 326.802 653.771 327.348 652.499L335.498 633.466C341.579 619.199 347.566 604.803 353.011 590.286C354.161 587.219 359.143 579.076 359.419 577.541C362.485 573.51 367.232 563.449 369.808 558.465C370.693 557.656 372.151 554.765 372.729 553.614C373.023 553.364 373.014 553.388 373.206 553.057C374.871 549.982 377.01 546.545 378.805 543.495C383.465 540.753 381.41 540.455 384.673 537.213C385.437 536.453 385.629 536.776 386.81 535.175C386.912 534.291 387.04 533.41 387.193 532.533C388.067 529.741 392.427 527.461 393.32 521.582C395.063 518.574 399.902 512.665 402.082 509.598C411.687 496.078 422.256 483.962 433.217 471.553Z"/><path fill="#E0E7FF" d="M450.082 417.923C453.732 418.399 457.262 418.271 460.693 418.778C466.223 419.595 469.159 417.512 474.292 417.264C478.234 417.857 479.447 417.894 483.52 417.854C485.331 418.35 486.271 418.54 488.087 418.89C487.073 420.795 487.247 420.979 485.655 422.122L484.886 422.157C476.726 421.244 468.418 420.399 460.249 419.576C456.766 419.225 452.994 419.225 449.345 418.725L450.082 417.923Z"/><path fill="#6366F1" d="M251.685 541.143C251.854 540.927 252.023 540.711 252.192 540.495C250.496 533.494 239.387 509.874 238.935 504.692C240.934 502.322 244.533 498.739 247.077 497.066C252.001 493.829 259.073 495.141 264.249 493.62C265.935 499.642 268.55 505.617 270.486 511.556C272.086 516.464 273.328 521.474 275.585 526.198L275.895 525.678C279.408 533.972 283.202 545.729 286.22 554.439L303.41 603.696C307.457 615.051 311.688 626.389 315.737 637.739C318.224 644.711 322.198 653.607 323.903 660.562C320.921 667.602 317.841 675.576 313.971 682.211C312.05 685.504 309.663 684.665 306.84 683.186L305.165 682.319C302.296 675.771 299.169 666.425 296.53 659.554C289.694 642.06 283.025 624.501 276.522 606.879L260.002 563.352C257.272 556.154 254.07 548.394 251.685 541.143Z"/><defs><linearGradient id="gradient_0" gradientUnits="userSpaceOnUse" x1="307.11588" y1="472.19147" x2="254.76294" y2="418.01859"><stop offset="0" stop-color="#2B6BFF"/><stop offset="1" stop-color="#0080FF"/></linearGradient></defs><path fill="url(#gradient_0)" d="M337.01 420.598C339.999 420.395 342.987 420.171 345.972 419.925C348.046 420.673 350.73 420.738 352.748 420.145C356.891 418.929 360.028 423.227 356.242 424.328C352.964 425.281 351.205 425.06 348.027 427.079C332.915 431.104 317.455 434.243 302.389 438.51C295.083 440.58 286.564 441.993 279.857 445.517C265.558 453.032 256.84 468.753 261.904 484.751C266.271 498.548 271.453 511.934 275.895 525.678L275.585 526.198C273.328 521.474 272.086 516.464 270.486 511.556C268.55 505.617 265.935 499.642 264.249 493.62C259.073 495.141 252.001 493.829 247.077 497.066C244.533 498.739 240.934 502.322 238.935 504.692C239.387 509.874 250.496 533.494 252.192 540.495C252.023 540.711 251.854 540.927 251.685 541.143C250.508 539.076 247.258 530.114 246.268 527.546C242.283 517.274 238.39 506.966 234.591 496.624C231.744 488.997 224.158 471.382 222.943 464.234C221.733 457.094 223.451 449.767 227.711 443.91C236.307 432.117 248.089 431.158 261.273 429.046C277.759 426.404 294.494 425.603 310.896 423.03C311.951 423.024 312.866 422.991 313.916 422.948C316.134 422.629 319.568 422.153 321.756 422.038C323.955 421.958 325.121 421.877 327.33 421.578C328.932 421.491 335.783 421.032 337.01 420.598Z"/><path fill="#FEFEFE" d="M387.545 415.426C390.619 415.548 395.322 416.049 397.949 416.02C399.504 416.349 400.258 416.447 401.849 416.589L402.459 417.179C398.257 417.701 384.209 417.145 382.022 417.931C382.108 418.206 382.175 418.415 382.194 418.688C381.877 418.817 380.981 419.463 381.204 419.385C375.931 421.218 368.952 422.445 363.508 423.618L361.011 424.154C356.852 425.188 352.233 426.428 348.027 427.079C351.205 425.06 352.964 425.281 356.242 424.328C360.028 423.227 356.891 418.929 352.748 420.145C350.73 420.738 348.046 420.673 345.972 419.925C342.987 420.171 339.999 420.395 337.01 420.598C343.347 415.882 353.653 418.664 361.001 417.17C362.311 416.904 365.295 416.745 366.361 416.126C373.52 415.464 380.643 415.851 387.545 415.426Z"/><path fill="#6366F1" d="M345.972 419.925C353.55 418.574 373.803 418.073 382.022 417.931C382.108 418.206 382.175 418.415 382.194 418.688C381.877 418.817 380.981 419.463 381.204 419.385C375.931 421.218 368.952 422.445 363.508 423.618L361.011 424.154C356.852 425.188 352.233 426.428 348.027 427.079C351.205 425.06 352.964 425.281 356.242 424.328C360.028 423.227 356.891 418.929 352.748 420.145C350.73 420.738 348.046 420.673 345.972 419.925Z"/><path fill="#8B87FE" d="M462.605 224.387C464.077 222.603 466.07 219.651 468.399 219.76C476.534 220.14 486.751 222.212 494.784 223.495L543.289 231.104C558.385 233.589 574.815 235.547 589.528 238.223C601.785 240.01 624.737 242.916 636.175 245.514C643.773 245.879 653.948 248.093 661.535 249.459C675.042 251.89 690.917 251.201 700.838 261.952C705.451 267.014 707.854 273.707 707.514 280.547C706.795 293.474 690.639 320.9 685.773 334.552C681.116 347.62 673.463 362.043 668.141 374.988C666.8 377.858 662.743 387.46 661.355 389.681C660 388.178 663.833 383.851 663.222 381.134C662.692 378.778 660.946 376.753 658.398 377.193C657.006 378.883 655.807 383.157 654.779 385.569L654.208 385.091C651.237 391.793 649.006 399.384 646.315 406.238L638.765 426.84C638.696 427.019 638.626 427.199 638.557 427.379C637.961 429.278 637.275 431.041 636.642 432.922C636.045 434.355 635.751 435.776 635.053 437.056C634.847 437.722 634.713 438.223 634.546 438.9C634.001 440.563 633.268 442.462 632.659 444.144C632.036 445.604 631.194 447.573 630.764 449.085C629.81 451.339 628.222 455.656 627.537 457.915L627.378 458.329C626.089 461.623 625.289 463.409 624.228 466.872C622.787 469.524 618.463 482.208 617.161 485.968C617.811 487.501 617.777 487.148 619.247 487.873C616.986 493.066 614.534 496.822 613.675 502.194C612.516 503.231 611.986 503.654 611.044 504.901L610.732 505.864C609.818 508.854 607.821 514.028 605.59 516.166L605.42 516.591C603.885 517.172 603.709 517.069 602.008 517.127L601.571 517.101C597.937 513.024 595.014 500.457 593.423 494.592C593.097 493.115 592.846 492.052 592.354 490.61C591.626 487.78 590.833 484.866 589.858 482.111C589.687 480.33 588.544 476.837 587.806 475.129C583.133 462.112 579.605 448.434 574.471 435.461L574.38 434.983C573.273 431.521 571.762 427.69 570.522 424.26C568.231 416.556 559.975 397.103 555.806 390.468C555.43 389.405 555.503 389.409 554.832 388.595C553.87 386.837 550.965 381.67 549.845 380.297C549.399 379.439 549.066 378.532 548.437 377.858C541.42 365.504 533.191 353.347 525.75 341.19L483.363 271.561C479.428 265.208 459.775 235.057 458.592 230.314C459.007 227.208 460.227 226.453 462.605 224.387Z"/><defs><linearGradient id="gradient_1" gradientUnits="userSpaceOnUse" x1="704.21814" y1="319.8179" x2="574.83044" y2="309.90717"><stop offset="0" stop-color="#FFD900"/><stop offset="1" stop-color="#DEA48A"/></linearGradient></defs><path fill="url(#gradient_1)" d="M589.528 238.223C601.785 240.01 624.737 242.916 636.175 245.514C643.773 245.879 653.948 248.093 661.535 249.459C675.042 251.89 690.917 251.201 700.838 261.952C705.451 267.014 707.854 273.707 707.514 280.547C706.795 293.474 690.639 320.9 685.773 334.552C681.116 347.62 673.463 362.043 668.141 374.988C666.8 377.858 662.743 387.46 661.355 389.681C660 388.178 663.833 383.851 663.222 381.134C662.692 378.778 660.946 376.753 658.398 377.193C657.006 378.883 655.807 383.157 654.779 385.569L654.208 385.091C660.095 366.804 668.414 347.997 674.432 329.642C678.189 318.184 677.694 305.219 671.798 294.461C669.422 290.11 666.166 286.301 662.239 283.275C650.673 274.286 642.061 276.645 629.433 272.888L628.689 272.661C626.443 272.488 613.243 269.654 610.111 268.935C600.51 266.732 588.305 265.134 579.101 262.63C581.712 260.967 591.362 265.91 592.902 264.317C596.525 260.567 599.541 246.269 600.892 241.189C599.754 240.412 592.444 239.509 590.002 238.961L589.528 238.223Z"/><path fill="#257BFA" d="M462.605 224.387C466.455 228.107 472.672 239.4 475.78 244.445C483.286 256.483 490.688 268.585 497.986 280.75L539.15 348.215C543.872 355.796 548.734 363.795 553.721 371.134C572.764 399.156 578.827 433.222 590.139 464.713C596.137 481.41 600.127 499.174 605.59 516.166L605.42 516.591C603.885 517.172 603.709 517.069 602.008 517.127L601.571 517.101C597.937 513.024 595.014 500.457 593.423 494.592C593.097 493.115 592.846 492.052 592.354 490.61C591.626 487.78 590.833 484.866 589.858 482.111C589.687 480.33 588.544 476.837 587.806 475.129C583.133 462.112 579.605 448.434 574.471 435.461L574.38 434.983C573.273 431.521 571.762 427.69 570.522 424.26C568.231 416.556 559.975 397.103 555.806 390.468C555.43 389.405 555.503 389.409 554.832 388.595C553.87 386.837 550.965 381.67 549.845 380.297C549.399 379.439 549.066 378.532 548.437 377.858C541.42 365.504 533.191 353.347 525.75 341.19L483.363 271.561C479.428 265.208 459.775 235.057 458.592 230.314C459.007 227.208 460.227 226.453 462.605 224.387Z"/><path fill="#CCAEB0" d="M543.289 231.104C558.385 233.589 574.815 235.547 589.528 238.223L590.002 238.961C592.444 239.509 599.754 240.412 600.892 241.189C599.541 246.269 596.525 260.567 592.902 264.317C591.362 265.91 581.712 260.967 579.101 262.63C571.371 261.53 564.11 259.266 556.512 257.807C552.652 257.065 549.337 256.376 545.496 255.399C546.898 255.453 547.212 255.405 548.613 255.213C550.953 249.085 553.096 240.084 555.604 234.73C552.704 232.037 546.875 233.87 543.289 231.104Z"/><path fill="#E7BC7B" d="M611.044 504.901C611.564 501.9 615.666 488.473 617.161 485.968C617.811 487.501 617.777 487.148 619.247 487.873C616.986 493.066 614.534 496.822 613.675 502.194C612.516 503.231 611.986 503.654 611.044 504.901Z"/><path fill="#8B87FE" d="M393.202 232.934C404.155 215.736 428.583 216.957 440.041 232.641C444.104 238.202 447.943 243.91 451.858 249.574L478.343 288.327C481.696 293.168 486.905 301.156 490.396 305.44C491.586 307.534 493.087 309.687 494.533 311.617C495.496 313.319 496.994 315.399 498.128 317.064C499.707 319.235 503.225 324.89 504.62 326.526C505.494 327.887 509.198 333.975 510.029 334.621C514.292 342.188 521.85 352.985 526.829 360.375C531.011 366.584 537.526 377.095 541.91 382.809C543.413 385.117 544.811 387.16 546.238 389.542C546.915 390.475 547.163 391.179 547.975 391.92C548.889 392.507 549.303 392.893 550.119 393.547C551.415 395.329 553.036 398.184 554.675 399.556C555.189 400.424 556.981 403.18 557.145 403.952C557.85 407.255 563.355 409.491 560.485 404.278C559.236 402.009 558.235 398.857 557.623 396.393C558.018 394.544 555.324 395.098 555.806 390.468C559.975 397.103 568.231 416.556 570.522 424.26C569.925 424.547 569.847 424.625 569.193 425.041C568.502 427.819 567.898 429.614 565.163 430.782L565.467 431.16C564.857 432.372 564.813 432.673 564.672 434.059C564.107 435.431 563.782 436.101 563.067 437.378C561.078 438.358 559.987 438.362 557.707 438.571C555.872 436.602 550.173 434.795 548.403 436.356C548.611 437.376 548.737 437.412 548.669 438.441C547.202 437.951 541.589 435.581 540.079 434.837C540.136 431.974 538.687 432.552 536.825 433.833C534.611 433.096 532.043 432.48 529.746 432.063C526.535 431.46 523.29 431.051 520.03 430.837C520.341 429.299 520.952 429.951 522.493 430.172C524.594 430.251 529.908 429.734 532.042 429.555L531.275 429.333C526.651 428.031 514.695 424.157 510.429 424.878C509.932 423.48 501.09 422.007 499.246 421.609C496.143 420.688 493.602 420.26 490.509 419.528C489.696 419.319 488.905 419.096 488.087 418.89C486.271 418.54 485.331 418.35 483.52 417.854C481.198 417.283 473.931 414.98 472.091 413.534C471.342 412.398 470.599 411.361 469.418 410.642L468.787 410.235C467.872 410.072 467.628 410.042 466.701 409.98C462.769 409.088 458.896 408.834 454.997 408.167C447.257 406.842 439.712 405.939 431.918 405.017C419.419 403.45 406.859 402.415 394.272 401.917C390.426 401.173 389.734 402.607 388.035 399.868C386.031 400.277 384.722 400.476 382.972 401.459C376.861 402.433 368.099 401.837 361.747 401.929C337.158 402.285 312.496 404.809 287.951 405.491C279.866 406.146 268.187 407.753 260.555 406.22C258.674 400.674 260.944 399.321 264.281 395.17C279.545 376.183 294.419 356.892 309.493 337.759C314.117 331.891 319.031 325.282 324.026 319.802C325.618 317.372 327.924 314.438 329.769 312.148C350.932 285.884 371.476 258.7 393.202 232.934Z"/><path fill="#F8990C" d="M393.202 232.934C404.155 215.736 428.583 216.957 440.041 232.641C444.104 238.202 447.943 243.91 451.858 249.574L478.343 288.327C481.696 293.168 486.905 301.156 490.396 305.44C491.586 307.534 493.087 309.687 494.533 311.617C495.496 313.319 496.994 315.399 498.128 317.064C499.707 319.235 503.225 324.89 504.62 326.526C505.494 327.887 509.198 333.975 510.029 334.621C514.292 342.188 521.85 352.985 526.829 360.375C531.011 366.584 537.526 377.095 541.91 382.809C543.413 385.117 544.811 387.16 546.238 389.542C546.915 390.475 547.163 391.179 547.975 391.92C548.889 392.507 549.303 392.893 550.119 393.547C551.415 395.329 553.036 398.184 554.675 399.556C555.189 400.424 556.981 403.18 557.145 403.952C557.85 407.255 563.355 409.491 560.485 404.278C559.236 402.009 558.235 398.857 557.623 396.393C558.018 394.544 555.324 395.098 555.806 390.468C559.975 397.103 568.231 416.556 570.522 424.26C569.925 424.547 569.847 424.625 569.193 425.041C568.502 427.819 567.898 429.614 565.163 430.782L565.467 431.16C564.857 432.372 564.813 432.673 564.672 434.059C564.107 435.431 563.782 436.101 563.067 437.378C561.078 438.358 559.987 438.362 557.707 438.571C555.872 436.602 550.173 434.795 548.403 436.356C548.611 437.376 548.737 437.412 548.669 438.441C547.202 437.951 541.589 435.581 540.079 434.837C540.136 431.974 538.687 432.552 536.825 433.833C534.611 433.096 532.043 432.48 529.746 432.063C526.535 431.46 523.29 431.051 520.03 430.837C520.341 429.299 520.952 429.951 522.493 430.172C524.594 430.251 529.908 429.734 532.042 429.555L531.275 429.333C526.651 428.031 514.695 424.157 510.429 424.878C509.932 423.48 501.09 422.007 499.246 421.609C496.143 420.688 493.602 420.26 490.509 419.528C489.696 419.319 488.905 419.096 488.087 418.89C486.271 418.54 485.331 418.35 483.52 417.854C481.198 417.283 473.931 414.98 472.091 413.534C471.342 412.398 470.599 411.361 469.418 410.642L468.787 410.235C467.872 410.072 467.628 410.042 466.701 409.98C462.769 409.088 458.896 408.834 454.997 408.167C447.257 406.842 439.712 405.939 431.918 405.017C419.419 403.45 406.859 402.415 394.272 401.917C390.426 401.173 389.734 402.607 388.035 399.868C392.174 399.112 401.985 395.791 406.066 394.468C433.853 385.465 460.622 373.343 484.444 356.307C490.396 352.05 497.902 346.615 502.675 341.162L460.31 291.365C443.143 271.319 432.494 250.672 402.683 261.945C392.516 250.689 392.711 247.782 393.202 232.934Z"/><path fill="#138BF5" d="M468.787 410.235C486.883 413.114 504.867 416.661 522.701 420.87C533.983 423.596 554.26 429.359 565.163 430.782L565.467 431.16C564.857 432.372 564.813 432.673 564.672 434.059C564.107 435.431 563.782 436.101 563.067 437.378C561.078 438.358 559.987 438.362 557.707 438.571C555.872 436.602 550.173 434.795 548.403 436.356C548.611 437.376 548.737 437.412 548.669 438.441C547.202 437.951 541.589 435.581 540.079 434.837C540.136 431.974 538.687 432.552 536.825 433.833C534.611 433.096 532.043 432.48 529.746 432.063C526.535 431.46 523.29 431.051 520.03 430.837C520.341 429.299 520.952 429.951 522.493 430.172C524.594 430.251 529.908 429.734 532.042 429.555L531.275 429.333C526.651 428.031 514.695 424.157 510.429 424.878C509.932 423.48 501.09 422.007 499.246 421.609C496.143 420.688 493.602 420.26 490.509 419.528C489.696 419.319 488.905 419.096 488.087 418.89C486.271 418.54 485.331 418.35 483.52 417.854C481.198 417.283 473.931 414.98 472.091 413.534C471.342 412.398 470.599 411.361 469.418 410.642L468.787 410.235Z"/><path fill="#FEFEFE" d="M532.042 429.555C537.113 430.298 544.322 432.396 549.494 433.677L551.494 434.183C555.204 435.124 557.246 435.79 561.062 436.465C562.391 435.498 563.107 434.364 564.672 434.059C564.107 435.431 563.782 436.101 563.067 437.378C561.078 438.358 559.987 438.362 557.707 438.571C555.872 436.602 550.173 434.795 548.403 436.356C548.611 437.376 548.737 437.412 548.669 438.441C547.202 437.951 541.589 435.581 540.079 434.837C540.136 431.974 538.687 432.552 536.825 433.833C534.611 433.096 532.043 432.48 529.746 432.063C526.535 431.46 523.29 431.051 520.03 430.837C520.341 429.299 520.952 429.951 522.493 430.172C524.594 430.251 529.908 429.734 532.042 429.555Z"/><path fill="#FEFEFE" d="M555.806 390.468C559.975 397.103 568.231 416.556 570.522 424.26C569.925 424.547 569.847 424.625 569.193 425.041C564.154 414.02 552.133 402.045 547.975 391.92C548.889 392.507 549.303 392.893 550.119 393.547C551.415 395.329 553.036 398.184 554.675 399.556C555.189 400.424 556.981 403.18 557.145 403.952C557.85 407.255 563.355 409.491 560.485 404.278C559.236 402.009 558.235 398.857 557.623 396.393C558.018 394.544 555.324 395.098 555.806 390.468Z"/><path fill="#257BFA" d="M324.026 319.802C327.086 318.884 325.332 317.723 328.319 319.276C334.238 322.354 345.613 322.41 350.538 325.586C348.885 326.351 347.432 329.681 346.188 331.372C342.906 335.833 339.534 340.18 336.139 344.556C326.375 357.298 316.508 369.962 306.539 382.545C301.316 389.038 292.305 399.313 287.951 405.491C279.866 406.146 268.187 407.753 260.555 406.22C258.674 400.674 260.944 399.321 264.281 395.17C279.545 376.183 294.419 356.892 309.493 337.759C314.117 331.891 319.031 325.282 324.026 319.802Z"/><path fill="#8B5CF6" d="M324.026 319.802C325.618 317.372 327.924 314.438 329.769 312.148C350.932 285.884 371.476 258.7 393.202 232.934C392.711 247.782 392.516 250.689 402.683 261.945C393.751 269.394 387.332 278.62 380.229 287.84L359.918 314.132C358.33 316.178 352.193 324.574 350.538 325.586C345.613 322.41 334.238 322.354 328.319 319.276C325.332 317.723 327.086 318.884 324.026 319.802Z"/><path fill="#8B87FE" d="M714.842 304.596C716.332 303.447 716.178 303.119 717.529 303.285C720.321 307.352 724.332 318.769 726.547 323.758L753.458 385.122L791.171 471.623C797.172 485.428 803.269 499.184 809.012 513.098C811.796 519.844 811.916 530.541 807.329 536.564C806.585 537.472 805.998 538.138 805.352 539.128C801.298 543.396 801.482 543.436 796.367 546.877L791.163 549.135C789.316 549.677 787.79 550.033 785.924 550.462C783.223 550.837 774.284 551.873 772.069 552.439C769.734 552.555 768.295 552.793 766.002 553.088C764.284 553.3 762.578 553.599 760.891 553.986C758.396 554.144 745.549 555.635 743.631 556.324C742.48 556.415 741.328 556.495 740.175 556.564C738.498 556.944 737.104 557.1 735.439 557.395C733.626 557.617 731.096 557.963 729.281 558.25C723.69 559.134 716.555 560.513 711.048 559.922C697.884 563.082 676.622 563.603 664.867 566.925C664.144 567.07 657.459 568.277 657.089 568.406C653.487 568.745 647.837 569.69 644.277 570.453C638.375 571.011 629.42 572.283 623.575 573.385C622.147 573.648 620.72 573.864 619.288 574.113C616.724 574.141 601.211 576.016 599.055 576.82C596.581 577.068 593.61 577.495 591.18 578.02C588.375 578.053 583.252 578.944 580.309 579.27C570.746 580.33 560.931 582.113 551.343 582.644C555.815 576.895 566.569 566.632 572.053 561.096C574.333 558.927 587.078 545.983 588.177 543.928C588.632 543.169 588.854 542.812 589.216 542C593.347 536.637 597.621 531.161 601.802 525.836C601.013 522.961 601.062 522.534 601.825 519.815C602.91 518.913 602.273 518.558 602.008 517.127C603.709 517.069 603.885 517.172 605.42 516.591L605.59 516.166C607.821 514.028 609.818 508.854 610.732 505.864L611.044 504.901C611.986 503.654 612.516 503.231 613.675 502.194L613.709 503.073C613.815 504.482 613.498 506.914 613.451 508.482C616.141 506.162 617.65 503.108 619.715 500.363C621.311 498.367 622.842 496.085 624.385 494.012C625.437 492.758 626.149 491.503 626.884 490.059C627.68 489.069 627.823 488.984 628.281 487.829C628.934 486.977 629.31 486.457 629.887 485.531L630.006 485.207C630.812 484.307 631.334 483.658 631.77 482.516C639.644 472.187 649.189 453.282 655.814 441.974C656.058 441.144 659.176 435.066 659.711 433.982C662.422 428.479 665.087 422.953 667.708 417.406C668.98 413.071 675.922 397.243 678.082 391.88C685.883 372.519 693.48 350.613 701.899 331.658C703.176 327.78 705.066 322.604 706.484 318.736C707.679 315.472 708.831 313.08 710.312 310.014C712.019 307.254 712.414 306.704 714.842 304.596Z"/><path fill="#FBBF24" d="M714.842 304.596C716.332 303.447 716.178 303.119 717.529 303.285C720.321 307.352 724.332 318.769 726.547 323.758L753.458 385.122L791.171 471.623C797.172 485.428 803.269 499.184 809.012 513.098C811.796 519.844 811.916 530.541 807.329 536.564C806.585 537.472 805.998 538.138 805.352 539.128C801.298 543.396 801.482 543.436 796.367 546.877L791.163 549.135C789.316 549.677 787.79 550.033 785.924 550.462C783.223 550.837 774.284 551.873 772.069 552.439C769.734 552.555 768.295 552.793 766.002 553.088C764.284 553.3 762.578 553.599 760.891 553.986C758.396 554.144 745.549 555.635 743.631 556.324C742.48 556.415 741.328 556.495 740.175 556.564C738.396 556.299 736.537 555.897 734.746 555.77C734.587 555.758 734.397 555.831 734.268 555.736C734.121 555.627 733.872 555.433 733.805 555.248C734.42 554.706 735.019 554.269 735.614 553.684C741.223 552.672 747.462 550.622 752.817 548.688C771.932 541.787 782.638 520.226 775.094 501.044C771.324 491.455 767.051 482.056 763.096 472.527L732.231 399.694L712.593 352.85C711.049 349.235 706.382 336.95 704.335 334.547L703.878 334.591C703.951 333.279 703.747 330.838 704.452 329.806C705.327 328.523 705.148 325.471 704.176 327.865C703.236 330.183 703.801 330.091 701.899 331.658C703.176 327.78 705.066 322.604 706.484 318.736C707.679 315.472 708.831 313.08 710.312 310.014C712.019 307.254 712.414 306.704 714.842 304.596Z"/><path fill="#138BF5" d="M706.484 318.736C707.142 320.043 707.755 320.937 708.401 322.282C707.083 325.487 704.749 331.237 704.335 334.547L703.878 334.591C703.951 333.279 703.747 330.838 704.452 329.806C705.327 328.523 705.148 325.471 704.176 327.865C703.236 330.183 703.801 330.091 701.899 331.658C703.176 327.78 705.066 322.604 706.484 318.736Z"/><path fill="#4D96BD" d="M710.312 310.014C711.1 310.841 711.498 311.305 712.185 312.189C711.039 315.005 709.153 319.445 708.401 322.282C707.755 320.937 707.142 320.043 706.484 318.736C707.679 315.472 708.831 313.08 710.312 310.014Z"/><path fill="#5299B1" d="M714.842 304.596C714.223 307.634 713.39 309.363 712.185 312.189C711.498 311.305 711.1 310.841 710.312 310.014C712.019 307.254 712.414 306.704 714.842 304.596Z"/><path fill="#F8990C" d="M701.899 331.658C703.801 330.091 703.236 330.183 704.176 327.865C705.148 325.471 705.327 328.523 704.452 329.806C703.747 330.838 703.951 333.279 703.878 334.591C697.021 350.7 690.933 367.441 684.554 383.735C681.535 391.447 677.076 405.065 673.257 412.069L671.401 415.997C670.663 417.467 669.399 420.052 668.846 421.556C668.327 422.642 666.328 426.859 666.117 427.731C667.607 428.349 667.611 428.484 668.433 429.936C659.003 466.273 655.27 502.11 659.92 539.501C661.152 549.409 663.298 557.455 664.867 566.925C664.144 567.07 657.459 568.277 657.089 568.406C653.487 568.745 647.837 569.69 644.277 570.453C638.375 571.011 629.42 572.283 623.575 573.385C622.147 573.648 620.72 573.864 619.288 574.113C616.724 574.141 601.211 576.016 599.055 576.82C596.581 577.068 593.61 577.495 591.18 578.02C588.375 578.053 583.252 578.944 580.309 579.27C570.746 580.33 560.931 582.113 551.343 582.644C555.815 576.895 566.569 566.632 572.053 561.096C574.333 558.927 587.078 545.983 588.177 543.928C588.632 543.169 588.854 542.812 589.216 542C593.347 536.637 597.621 531.161 601.802 525.836C601.013 522.961 601.062 522.534 601.825 519.815C602.91 518.913 602.273 518.558 602.008 517.127C603.709 517.069 603.885 517.172 605.42 516.591L605.59 516.166C607.821 514.028 609.818 508.854 610.732 505.864L611.044 504.901C611.986 503.654 612.516 503.231 613.675 502.194L613.709 503.073C613.815 504.482 613.498 506.914 613.451 508.482C616.141 506.162 617.65 503.108 619.715 500.363C621.311 498.367 622.842 496.085 624.385 494.012C625.437 492.758 626.149 491.503 626.884 490.059C627.68 489.069 627.823 488.984 628.281 487.829C628.934 486.977 629.31 486.457 629.887 485.531L630.006 485.207C630.812 484.307 631.334 483.658 631.77 482.516C639.644 472.187 649.189 453.282 655.814 441.974C656.058 441.144 659.176 435.066 659.711 433.982C662.422 428.479 665.087 422.953 667.708 417.406C668.98 413.071 675.922 397.243 678.082 391.88C685.883 372.519 693.48 350.613 701.899 331.658Z"/><path fill="#257BFA" d="M701.899 331.658C703.801 330.091 703.236 330.183 704.176 327.865C705.148 325.471 705.327 328.523 704.452 329.806C703.747 330.838 703.951 333.279 703.878 334.591C697.021 350.7 690.933 367.441 684.554 383.735C681.535 391.447 677.076 405.065 673.257 412.069L671.401 415.997C670.663 417.467 669.399 420.052 668.846 421.556C668.327 422.642 666.328 426.859 666.117 427.731C663.253 433.393 659.295 441.265 655.724 446.496C646.758 464.89 602.192 530.871 588.177 543.928C588.632 543.169 588.854 542.812 589.216 542C593.347 536.637 597.621 531.161 601.802 525.836C601.013 522.961 601.062 522.534 601.825 519.815C602.91 518.913 602.273 518.558 602.008 517.127C603.709 517.069 603.885 517.172 605.42 516.591L605.59 516.166C607.821 514.028 609.818 508.854 610.732 505.864L611.044 504.901C611.986 503.654 612.516 503.231 613.675 502.194L613.709 503.073C613.815 504.482 613.498 506.914 613.451 508.482C616.141 506.162 617.65 503.108 619.715 500.363C621.311 498.367 622.842 496.085 624.385 494.012C625.437 492.758 626.149 491.503 626.884 490.059C627.68 489.069 627.823 488.984 628.281 487.829C628.934 486.977 629.31 486.457 629.887 485.531L630.006 485.207C630.812 484.307 631.334 483.658 631.77 482.516C639.644 472.187 649.189 453.282 655.814 441.974C656.058 441.144 659.176 435.066 659.711 433.982C662.422 428.479 665.087 422.953 667.708 417.406C668.98 413.071 675.922 397.243 678.082 391.88C685.883 372.519 693.48 350.613 701.899 331.658Z"/><path fill="#FEFCE9" d="M611.044 504.901C611.986 503.654 612.516 503.231 613.675 502.194L613.709 503.073C613.815 504.482 613.498 506.914 613.451 508.482C613.241 510.602 608.633 516.776 607.348 518.09C606.577 518.408 605.01 519.5 604.761 519.566C604.298 519.375 605.307 517.028 605.42 516.591L605.59 516.166C607.821 514.028 609.818 508.854 610.732 505.864L611.044 504.901Z"/><path fill="#FEFEFE" d="M602.008 517.127C603.709 517.069 603.885 517.172 605.42 516.591C605.307 517.028 604.298 519.375 604.761 519.566C605.01 519.5 606.577 518.408 607.348 518.09C605.551 520.859 603.602 523.071 601.802 525.836C601.013 522.961 601.062 522.534 601.825 519.815C602.91 518.913 602.273 518.558 602.008 517.127Z"/><path fill="#F0DB82" d="M711.048 559.922C713.068 558.777 722.772 556.424 725.233 556.16L725.666 556.85C726.432 558.105 727.978 558.048 729.281 558.25C723.69 559.134 716.555 560.513 711.048 559.922Z"/><path fill="#F3C72F" d="M725.233 556.16C725.804 556.013 726.389 555.854 726.965 555.729C729.862 555.106 732.745 554.424 735.614 553.684C735.019 554.269 734.42 554.706 733.805 555.248C733.872 555.433 734.121 555.627 734.268 555.736C734.397 555.831 734.587 555.758 734.746 555.77C736.537 555.897 738.396 556.299 740.175 556.564C738.498 556.944 737.104 557.1 735.439 557.395C733.626 557.617 731.096 557.963 729.281 558.25C727.978 558.048 726.432 558.105 725.666 556.85L725.233 556.16Z"/><path fill="#F38B38" d="M668.846 421.556C669.918 422.36 669.798 422.564 670.357 423.876C669.688 425.868 669.078 427.918 668.433 429.936C667.611 428.484 667.607 428.349 666.117 427.731C666.328 426.859 668.327 422.642 668.846 421.556Z"/><path fill="#E3866A" d="M671.401 415.997C672.941 418.875 671.415 420.999 670.357 423.876C669.798 422.564 669.918 422.36 668.846 421.556C669.399 420.052 670.663 417.467 671.401 415.997Z"/><path fill="#09090B" d="M493.729 433.029C496.687 431.949 508.107 430.637 511.532 430.468C514.089 430.684 517.373 430.723 520.03 430.837C523.29 431.051 526.535 431.46 529.746 432.063C532.043 432.48 534.611 433.096 536.825 433.833C537.917 434.22 538.969 434.512 540.079 434.837C541.589 435.581 547.202 437.951 548.669 438.441L557.282 443.38C557.902 444.176 558.167 444.208 559.123 444.747C560.353 445.661 561.251 446.397 562.595 447.175C571.588 455.163 580.495 465.548 584.638 477.013C584.955 479.091 586.152 481.353 586.812 483.388C588.297 487.374 589.024 491.34 589.967 495.444C589.661 504.192 590.814 511.232 588.789 520.183C588.581 521.182 588.39 522.184 588.215 523.189C586.499 530.368 583.826 534.251 581.767 540.012C578.834 545.209 575.413 550.115 571.548 554.662C534.132 597.814 458.959 582.952 441.932 528.172C439.19 519.348 438.583 513.516 438.031 504.438C438.229 502.368 438.443 498.349 438.73 496.635C438.939 494.728 439.286 493.247 439.597 491.377C440.415 487.346 441.733 483.892 442.429 480.553C441.712 479.206 442.093 474.616 442.262 472.879C442.266 472.833 443.231 472.418 443.408 472.298C443.626 472 443.847 471.704 444.072 471.411C445.928 469.024 444.917 469.063 444.687 466.316L445.583 465.163C450.459 460.74 460.851 450.08 465.484 445.108C466.356 444.435 468.362 442.55 469.238 441.731C470.226 440.856 471.195 440.054 472.207 439.213C474.939 439.283 474.742 439.089 477.217 439.821C481.39 438.38 486.513 435.512 491.162 433.776C492.034 433.556 492.869 433.29 493.729 433.029Z"/><path fill="#FEFEFE" d="M472.207 439.213C474.939 439.283 474.742 439.089 477.217 439.821L476.811 440.072C458.372 451.296 450.776 461.276 442.429 480.553C441.712 479.206 442.093 474.616 442.262 472.879C442.266 472.833 443.231 472.418 443.408 472.298C443.626 472 443.847 471.704 444.072 471.411C445.928 469.024 444.917 469.063 444.687 466.316L445.583 465.163C450.459 460.74 460.851 450.08 465.484 445.108C466.356 444.435 468.362 442.55 469.238 441.731C470.226 440.856 471.195 440.054 472.207 439.213Z"/><path fill="#F0DB82" d="M510.648 502.837C515.467 502.769 518.589 504.171 515.204 509.348C510.449 509.667 507.788 507.086 510.648 502.837Z"/><path fill="#7FD5FB" fill-opacity="0.98823529" d="M805.352 539.128C805.998 538.138 806.585 537.472 807.329 536.564C807.043 547.376 797.103 557.039 786.922 559.182C771.257 562.479 754.963 563.568 739.148 565.788L612.706 583.387C602.956 584.632 593.177 585.64 583.377 586.409C578.904 586.786 570.789 587.253 566.517 588.055L565.687 588.707C560.428 586.658 555.956 589.49 549.976 586.861C547.922 579.336 564.95 567.37 570.259 561.269L570.76 560.686L572.053 561.096C566.569 566.632 555.815 576.895 551.343 582.644C560.931 582.113 570.746 580.33 580.309 579.27C583.252 578.944 588.375 578.053 591.18 578.02C593.009 578.677 599.909 579.431 599.055 576.82C601.211 576.016 616.724 574.141 619.288 574.113C622.69 576.242 628.884 575.346 633.127 575.144C629.347 574.024 627.38 573.621 623.575 573.385C629.42 572.283 638.375 571.011 644.277 570.453C646.817 570.952 656.423 571.609 657.089 568.406C657.459 568.277 664.144 567.07 664.867 566.925C676.622 563.603 697.884 563.082 711.048 559.922C716.555 560.513 723.69 559.134 729.281 558.25C731.096 557.963 733.626 557.617 735.439 557.395C736.906 557.919 745.067 559.764 743.631 556.324C745.549 555.635 758.396 554.144 760.891 553.986C764.306 554.185 769.9 555.038 772.069 552.439C774.284 551.873 783.223 550.837 785.924 550.462C789.172 551.487 795.188 550.6 791.163 549.135L796.367 546.877C802.739 548.14 803.93 544.661 805.352 539.128Z"/><path fill="#7FD5FB" d="M382.972 401.459C384.722 400.476 386.031 400.277 388.035 399.868C389.734 402.607 390.426 401.173 394.272 401.917C406.859 402.415 419.419 403.45 431.918 405.017L432.347 405.573C433.417 407.007 439.503 406.683 441.741 407.261L441.739 407.311C441.459 407.562 428.08 406.384 426.66 407.133L426.619 407.233C430.892 407.804 441.959 406.153 440.125 413.214C435.728 412.693 430.721 412.068 426.32 411.997C429.684 413.81 433.669 412.984 437.048 414.196C440.452 415.417 442.127 416.67 446.033 416.823C447.771 416.683 448.531 417.241 450.082 417.923L449.345 418.725C442.297 417.926 427.61 417.581 420.379 417.476C416.801 417.479 412.226 417.615 408.776 417.187L408.969 416.641C410.015 416.354 416.65 415.107 417.021 414.83C420.125 412.513 413.266 412.106 412.438 412.121C403.665 411.929 394.814 411.636 386.079 411.933C380.76 411.803 375.217 412.139 370.018 412.034C362.533 411.5 346.477 412.078 339.456 413.848C335.677 414.023 331.779 413.799 327.731 413.975C326.491 413.972 325.261 413.948 324.022 413.965C321.59 413.875 320.337 413.789 317.906 413.437C313.675 413.278 309.932 413.435 305.712 413.553C298.883 413.289 268.419 417.059 264.413 414.394C262.118 412.866 261.336 408.713 260.555 406.22C268.187 407.753 279.866 406.146 287.951 405.491C312.496 404.809 337.158 402.285 361.747 401.929C368.099 401.837 376.861 402.433 382.972 401.459Z"/><path fill="#FEFEFE" d="M317.906 413.437L318.671 412.466C320.613 411.907 331.049 411.254 333.684 411.1C363.942 409.327 396.237 408.826 426.32 411.997C429.684 413.81 433.669 412.984 437.048 414.196C440.452 415.417 442.127 416.67 446.033 416.823C447.771 416.683 448.531 417.241 450.082 417.923L449.345 418.725C442.297 417.926 427.61 417.581 420.379 417.476C416.801 417.479 412.226 417.615 408.776 417.187L408.969 416.641C410.015 416.354 416.65 415.107 417.021 414.83C420.125 412.513 413.266 412.106 412.438 412.121C403.665 411.929 394.814 411.636 386.079 411.933C380.76 411.803 375.217 412.139 370.018 412.034C362.533 411.5 346.477 412.078 339.456 413.848C335.677 414.023 331.779 413.799 327.731 413.975C326.491 413.972 325.261 413.948 324.022 413.965C321.59 413.875 320.337 413.789 317.906 413.437Z"/><path fill="#F38B38" d="M382.972 401.459C384.722 400.476 386.031 400.277 388.035 399.868C389.734 402.607 390.426 401.173 394.272 401.917C389.479 402.068 387.591 401.924 382.972 401.459Z"/><path fill="#FBBF24" d="M654.208 385.091L654.779 385.569C655.807 383.157 657.006 378.883 658.398 377.193C660.946 376.753 662.692 378.778 663.222 381.134C663.833 383.851 660 388.178 661.355 389.681C657.807 398.908 651.17 413.497 646.764 422.531C644.578 422.98 642.906 431.848 641.699 432.687C640.61 432.232 642.386 428.374 641.738 427.729C639.532 425.532 640.509 421.755 643.374 424.251C644.482 425.216 645.21 423.307 644.664 422.479C643.853 420.621 645.31 418.242 644.546 416.461C643.256 414.889 644.431 413.323 645.172 411.84C645.805 411.403 647.305 411.958 647.597 410.719C647.955 409.199 646.84 408.129 646.315 406.238C649.006 399.384 651.237 391.793 654.208 385.091Z"/><path fill="#FEFEFE" fill-opacity="0.61960787" d="M588.215 523.189C590.514 524.717 588.987 524.955 590.269 526.205L591.116 526.165L591.126 526.194C591.848 526.41 593.291 525.258 593.808 524.915L595.312 523.91C596.791 522.866 597.881 522.004 599.506 521.092L601.065 520.229L600.733 521.097C597.819 529.486 586.876 531.462 589.216 542C588.854 542.812 588.632 543.169 588.177 543.928C587.078 545.983 574.333 558.927 572.053 561.096L570.76 560.686C576.065 554.83 579.989 552.427 585.104 545.885C584.147 543.004 584.668 540.825 581.767 540.012C583.826 534.251 586.499 530.368 588.215 523.189Z"/><path fill="#FEFEFE" fill-opacity="0.75686276" d="M339.456 413.848C346.477 412.078 362.533 411.5 370.018 412.034C369.3 412.166 364.571 412.722 364.405 412.794C365.266 414.313 365.328 415.42 366.361 416.126C365.295 416.745 362.311 416.904 361.001 417.17C353.653 418.664 343.347 415.882 337.01 420.598C335.783 421.032 328.932 421.491 327.33 421.578C329.182 420.679 329.385 421.092 329.395 419.869C329.401 419.095 332.798 419.267 333.489 418.468C333.721 418.201 335.596 417.604 335.986 417.465C336.911 417.264 338.91 416.718 339.753 416.751C343.769 416.905 342.429 415.152 339.456 413.848Z"/><defs><linearGradient id="gradient_2" gradientUnits="userSpaceOnUse" x1="437.60339" y1="485.80222" x2="432.24075" y2="479.12622"><stop offset="0" stop-color="white" stop-opacity="0.78039217"/><stop offset="1" stop-color="white" stop-opacity="0.85882354"/></linearGradient></defs><path fill="url(#gradient_2)" d="M439.844 471.572C439.815 472.484 439.253 474.68 439.249 474.2C440.081 475.273 442.984 478.195 440.501 479.497C436.773 481.452 438.307 487.451 439.597 491.377C439.286 493.247 438.939 494.728 438.73 496.635C438.449 495.245 438.405 488.53 435.568 492.263C434.644 493.48 433.816 493.623 433.185 494.905C432.673 493.659 432.225 492.958 431.285 491.997L430.687 491.366C425.886 484.672 431.255 487.485 433.21 479.089C433.855 478.333 434.517 477.604 435.126 476.818C436.634 475.012 438.208 473.262 439.844 471.572Z"/><path fill="#FEFEFE" fill-opacity="0.47843137" d="M569.193 425.041C569.847 424.625 569.925 424.547 570.522 424.26C571.762 427.69 573.273 431.521 574.38 434.983L573.894 435.308C567.501 439.469 573.214 445.752 564.16 444.763C561.831 443.083 560.781 442.101 558.618 440.309C558.282 439.701 558.005 439.202 557.707 438.571C559.987 438.362 561.078 438.358 563.067 437.378C564.633 439.087 565.458 440.581 567.227 437.492C568.525 435.226 569.243 431.225 565.467 431.16L565.163 430.782C567.898 429.614 568.502 427.819 569.193 425.041Z"/><path fill="#FEFEFE" fill-opacity="0.98431373" d="M433.21 479.089C431.255 487.485 425.886 484.672 430.687 491.366C429.941 491.337 426.313 490.843 425.252 492.236C421.689 497.433 419.94 504.485 416.005 509.396C415.856 509.583 414.678 508.719 414.667 508.711C413.367 507.759 412.623 508.502 411.753 509.418C408.502 508.882 411.765 505.858 413.215 503.944C419.396 495.791 426.305 486.55 433.21 479.089Z"/><path fill="#7FD5FB" fill-opacity="0.82352942" d="M431.918 405.017C439.712 405.939 447.257 406.842 454.997 408.167C458.896 408.834 462.769 409.088 466.701 409.98L464.743 410.515C463.03 410.974 461.57 410.539 459.857 410.303C456.48 408.499 449.832 411.204 449.134 413.949C446.225 414.007 443.243 413.246 440.125 413.214C441.959 406.153 430.892 407.804 426.619 407.233L426.66 407.133C428.08 406.384 441.459 407.562 441.739 407.311L441.741 407.261C439.503 406.683 433.417 407.007 432.347 405.573L431.918 405.017Z"/><path fill="#ECBD77" fill-opacity="0.90980393" d="M638.557 427.379C638.626 427.199 638.696 427.019 638.765 426.84L646.315 406.238C646.84 408.129 647.955 409.199 647.597 410.719C647.305 411.958 645.805 411.403 645.172 411.84C644.431 413.323 643.256 414.889 644.546 416.461C645.31 418.242 643.853 420.621 644.664 422.479C645.21 423.307 644.482 425.216 643.374 424.251C640.509 421.755 639.532 425.532 641.738 427.729C642.386 428.374 640.61 432.232 641.699 432.687C642.906 431.848 644.578 422.98 646.764 422.531C646.056 426.056 639.941 439.995 638.24 443.873C636.407 441.168 636.5 439.807 635.053 437.056C635.751 435.776 636.045 434.355 636.642 432.922C640.862 432.751 640.154 430.08 638.557 427.379Z"/><path fill="#FEFEFE" fill-opacity="0.27058825" d="M305.712 413.553C309.932 413.435 313.675 413.278 317.906 413.437C320.337 413.789 321.59 413.875 324.022 413.965C327.339 416.612 322.846 419.786 320.753 419.642C317.645 419.427 312.972 417.563 313.916 422.948C312.866 422.991 311.951 423.024 310.896 423.03C310.529 421.559 309.958 422.182 310.407 420.762C311.023 418.819 311.257 416.34 311.61 414.276C308.884 414.089 308.34 414.2 305.712 413.553Z"/><path fill="#7FD5FB" fill-opacity="0.97254902" d="M456.396 447.932C461.242 447.511 460.883 445.323 464.522 445.164L465.484 445.108C460.851 450.08 450.459 460.74 445.583 465.163C446.092 463.41 445.418 462.511 446.472 461.474C448.373 459.605 448.136 459.257 447.285 457.012C449.773 454.253 453.708 450.614 456.396 447.932Z"/><path fill="#FEFEFE" fill-opacity="0.82745099" d="M488.087 418.89C488.905 419.096 489.696 419.319 490.509 419.528C490.197 420.178 490.33 421.416 490.023 421.433C489.196 421.48 488.03 423.004 488.713 423.299C494.799 425.922 490.277 428.465 492.262 431.558L493.729 433.029C492.869 433.29 492.034 433.556 491.162 433.776C489.891 433.057 488.757 432.854 487.255 433.365C483.026 434.802 484.536 430.761 484.215 429.755C484.059 429.885 483.903 430.014 483.748 430.144C483.512 429.892 483.148 429.133 483.026 428.904C484.912 425.725 485.323 425.521 485.655 422.122C487.247 420.979 487.073 420.795 488.087 418.89Z"/><path fill="#FEFEFE" fill-opacity="0.011764706" d="M386.079 411.933C394.814 411.636 403.665 411.929 412.438 412.121C413.225 413.576 409.934 413.988 408.731 415.167C407.443 416.428 400.465 415.763 397.949 416.02C395.322 416.049 390.619 415.548 387.545 415.426C387.434 415.18 387.378 414.975 387.321 414.792C387.686 414.417 388.065 414.853 388.712 414.529C388.843 414.109 388.733 414.12 388.342 413.951C387.68 411.76 388.315 413.525 386.079 411.933Z"/><path fill="#FEFEFE" fill-opacity="0.074509807" d="M370.018 412.034C375.217 412.139 380.76 411.803 386.079 411.933C388.315 413.525 387.68 411.76 388.342 413.951C388.733 414.12 388.843 414.109 388.712 414.529C388.065 414.853 387.686 414.417 387.321 414.792C387.378 414.975 387.434 415.18 387.545 415.426C380.643 415.851 373.52 415.464 366.361 416.126C365.328 415.42 365.266 414.313 364.405 412.794C364.571 412.722 369.3 412.166 370.018 412.034Z"/><path fill="#FEFEFE" fill-opacity="0.78431374" d="M601.065 520.229L601.825 519.815C601.062 522.534 601.013 522.961 601.802 525.836C597.621 531.161 593.347 536.637 589.216 542C586.876 531.462 597.819 529.486 600.733 521.097L601.065 520.229Z"/><path fill="#FEFEFE" fill-opacity="0.086274512" d="M402.027 520.047C404.049 517.316 407.656 510.337 410.882 510.536C413.329 511.265 412.796 511.991 414.725 510.994C414.764 511.18 414.804 511.366 414.843 511.552C413.883 514.221 412.154 516.355 411.235 519.479C410.875 520.285 410.795 520.38 410.281 521.092C409.008 520.564 407.97 521.807 406.554 520.628C405.466 519.721 403.35 520.018 402.027 520.047Z"/><defs><linearGradient id="gradient_3" gradientUnits="userSpaceOnUse" x1="508.27023" y1="332.33203" x2="510.63419" y2="326.2103"><stop offset="0" stop-color="white" stop-opacity="0.039215688"/><stop offset="1" stop-color="white" stop-opacity="0.10980392"/></linearGradient></defs><path fill="url(#gradient_3)" d="M504.46 316.801C506.784 319.244 505.775 317.798 507.646 321.404C509.034 324.079 510.653 328.353 513.301 329.73C515.926 330.482 513.79 335.51 512.413 334.619C511.159 333.807 511.275 333.354 510.029 334.621C509.198 333.975 505.494 327.887 504.62 326.526C506.041 323.023 507.073 322.107 504.254 319.015L503.722 318.424L504.46 316.801Z"/><path fill="#FEFEFE" fill-opacity="0.015686275" d="M620.496 485.615L620.907 487.515C620.626 488.766 620.794 488.841 621.418 490.002C621.289 491.852 621.259 492.097 620.4 493.79L620.147 494.295C618.937 496.716 617.162 497.788 619.298 499.427C619.433 499.754 619.549 500.04 619.715 500.363C617.65 503.108 616.141 506.162 613.451 508.482C613.498 506.914 613.815 504.482 613.709 503.073L613.675 502.194C614.534 496.822 616.986 493.066 619.247 487.873C619.763 487.11 620.067 486.439 620.496 485.615Z"/><path fill="#ECBD77" fill-opacity="0.41176471" d="M624.228 466.872C626.343 468.06 627.896 463.852 627.615 469.047L627.314 469.637C624.422 467.167 623.471 471.603 625.884 473.084L625.958 473.608C624.954 475.036 624.879 475.368 624.2 476.994C623.66 477.525 620.819 484.488 620.496 485.615C620.067 486.439 619.763 487.11 619.247 487.873C617.777 487.148 617.811 487.501 617.161 485.968C618.463 482.208 622.787 469.524 624.228 466.872Z"/><path fill="#FEFEFE" fill-opacity="0.92156863" d="M483.026 428.904C483.148 429.133 483.512 429.892 483.748 430.144C483.903 430.014 484.059 429.885 484.215 429.755C484.536 430.761 483.026 434.802 487.255 433.365C488.757 432.854 489.891 433.057 491.162 433.776C486.513 435.512 481.39 438.38 477.217 439.821C474.742 439.089 474.939 439.283 472.207 439.213C473.497 438.196 474.468 437.433 475.835 436.526C475.989 436.417 476.144 436.308 476.299 436.2C477.965 434.8 479.509 433.263 480.915 431.603C481.392 430.928 482.442 429.503 483.026 428.904Z"/><path fill="#7FD5FB" fill-opacity="0.84313726" d="M433.217 471.553C436.345 468.256 439.55 464.632 442.798 461.522C444.415 464.004 442.658 465.214 442.869 468.324L442.24 468.969C441.675 469.571 441.128 470.123 440.484 470.637L439.844 471.572C438.208 473.262 436.634 475.012 435.126 476.818C433.791 474.683 433.334 474.943 433.266 472.531L433.217 471.553Z"/><path fill="#7CDAFD" fill-opacity="0.5411765" d="M466.701 409.98C467.628 410.042 467.872 410.072 468.787 410.235L469.418 410.642C470.599 411.361 471.342 412.398 472.091 413.534L471.134 413.411C470.69 413.345 469.402 413.02 468.903 413.292C468.652 414.061 469.866 414.368 469.782 414.763C469.65 415.384 469.169 415.494 469.289 416.245C464.633 417.426 461.409 416.801 457.124 415.132C458.459 414.483 460.152 413.283 461.207 412.231C461.156 411.206 457.436 411.359 459.857 410.303C461.57 410.539 463.03 410.974 464.743 410.515L466.701 409.98Z"/><path fill="#FEFEFE" fill-opacity="0.59215689" d="M327.731 413.975C331.779 413.799 335.677 414.023 339.456 413.848C342.429 415.152 343.769 416.905 339.753 416.751C338.91 416.718 336.911 417.264 335.986 417.465C335.596 417.604 333.721 418.201 333.489 418.468C332.798 419.267 329.401 419.095 329.395 419.869C329.385 421.092 329.182 420.679 327.33 421.578C325.121 421.877 323.955 421.958 321.756 422.038C322.266 421.885 324.803 421.223 324.789 421.257C326.078 417.902 333.062 417.329 327.731 413.975Z"/><path fill="#FEFEFE" fill-opacity="0.86274511" d="M440.125 413.214C443.243 413.246 446.225 414.007 449.134 413.949C451.016 414.35 452.216 414.694 454.129 414.63L454.381 415.046C455.082 416.307 455.247 417.184 456.697 417.458C462.996 418.647 467.996 416.186 474.292 417.264C469.159 417.512 466.223 419.595 460.693 418.778C457.262 418.271 453.732 418.399 450.082 417.923C448.531 417.241 447.771 416.683 446.033 416.823C443.909 415.563 442.406 414.496 440.125 413.214Z"/><path fill="#FEFEFE" fill-opacity="0.40784314" d="M433.185 494.905C433.816 493.623 434.644 493.48 435.568 492.263C438.405 488.53 438.449 495.245 438.73 496.635C438.443 498.349 438.229 502.368 438.031 504.438C433.531 503.157 434.606 502.792 434.432 507.547C433.606 503.501 434.055 499.895 433.185 494.905Z"/><path fill="#FEFEFE" fill-opacity="0.38431373" d="M324.022 413.965C325.261 413.948 326.491 413.972 327.731 413.975C333.062 417.329 326.078 417.902 324.789 421.257C324.803 421.223 322.266 421.885 321.756 422.038C319.568 422.153 316.134 422.629 313.916 422.948C312.972 417.563 317.645 419.427 320.753 419.642C322.846 419.786 327.339 416.612 324.022 413.965ZM319.631 420.859C318.452 420.356 318.297 420.2 317.04 420.358C317.034 420.472 316.906 421.054 317.098 421.251C317.236 421.395 317.602 421.366 317.776 421.329C318.043 421.273 318.295 421.156 318.56 421.087C318.913 420.994 319.274 420.934 319.631 420.859Z"/><path fill="#FEFEFE" fill-opacity="0.40392157" d="M317.04 420.358C318.297 420.2 318.452 420.356 319.631 420.859C319.274 420.934 318.913 420.994 318.56 421.087C318.295 421.156 318.043 421.273 317.776 421.329C317.602 421.366 317.236 421.395 317.098 421.251C316.906 421.054 317.034 420.472 317.04 420.358Z"/><path fill="#FEFEFE" fill-opacity="0.23137255" d="M601.571 517.101L602.008 517.127C602.273 518.558 602.91 518.913 601.825 519.815L601.065 520.229L599.506 521.092C597.881 522.004 596.791 522.866 595.312 523.91L593.808 524.915C593.291 525.258 591.848 526.41 591.126 526.194L591.116 526.165L590.269 526.205C588.987 524.955 590.514 524.717 588.215 523.189C588.39 522.184 588.581 521.182 588.789 520.183C589.161 520.101 589.534 520.025 589.908 519.954C594.541 519.1 591.602 517.885 596.993 519.825C599.025 520.556 601.145 519.876 601.571 517.101Z"/><path fill="#FEFEFE" fill-opacity="0.24313726" d="M620.907 487.515C621.177 487.024 622.834 484.156 623.478 484.199C623.475 484.317 623.472 484.435 623.468 484.553C623.202 484.714 626.79 477.778 626.654 477.831C626.773 477.873 626.892 477.916 627.012 477.958C628.627 479.198 627.208 479.385 627.221 480.494C627.16 481.155 628.688 481.656 628.752 481.835C629.506 483.946 627.635 484.026 629.887 485.531C629.31 486.457 628.934 486.977 628.281 487.829C627.258 486.289 628.35 485.508 627.768 484.163C624.966 484.327 623.888 487.751 624.125 490.375C624.143 490.573 626.502 490.095 626.884 490.059C626.149 491.503 625.437 492.758 624.385 494.012C624.26 493.808 624.144 493.598 624.01 493.399C623.9 493.237 623.683 493.215 623.505 493.223C623.417 493.227 622.74 493.346 622.541 493.183C622.137 492.854 622.219 491.948 622.251 491.498C622.276 491.145 622.346 490.793 622.328 490.44C622.32 490.299 622.281 489.953 622.122 489.87C621.926 489.768 621.515 489.973 621.418 490.002C620.794 488.841 620.626 488.766 620.907 487.515Z"/><path fill="#E7BC7B" fill-opacity="0.75686276" d="M635.053 437.056C636.5 439.807 636.407 441.168 638.24 443.873C637.627 445.699 634.963 452.141 634.142 454.022C631.123 453.457 632.269 451.808 630.764 449.085C631.194 447.573 632.036 445.604 632.659 444.144C634.069 446.562 637.071 444.177 634.546 438.9C634.713 438.223 634.847 437.722 635.053 437.056Z"/><path fill="#FEFEFE" fill-opacity="0.26666668" d="M542.338 382.592C544.192 379.697 543.959 380.329 547.318 379.665C546.667 378.569 551.442 388.595 551.007 387.186C550.369 389.316 547.932 389.475 546.238 389.542C544.811 387.16 543.413 385.117 541.91 382.809L542.338 382.592Z"/><path fill="#FEFEFE" fill-opacity="0.05882353" d="M490.396 305.44C490.593 305.18 490.791 304.92 490.988 304.66C491.714 303.376 490.432 302.121 489.764 301.136C489.423 300.644 489.082 300.152 488.741 299.66C488.391 299.151 488.042 298.642 487.693 298.133C487.397 297.808 487.064 296.806 487.278 296.4C487.68 295.641 488.918 296.131 488.929 297.023C488.937 297.608 488.9 298.381 489.174 298.765C489.178 298.769 490.073 299.416 489.95 299.318C492.082 301.01 492.561 301.808 493.075 304.492C493.14 304.982 493.561 305.312 493.779 305.726C493.87 305.887 493.961 306.048 494.052 306.21C494.353 306.591 495.002 307.347 495.486 307.444C496.239 307.044 495.698 305.863 496.292 305.464C497.989 305.865 500.958 310.056 501.878 311.472C498.772 315.426 499.735 304.362 494.533 311.617C493.087 309.687 491.586 307.534 490.396 305.44Z"/><path fill="#FEFEFE" fill-opacity="0.14117648" d="M547.318 379.665C548.499 379.814 548.728 380.029 549.845 380.297C550.965 381.67 553.87 386.837 554.832 388.595C553.06 391.613 552.812 391.681 550.119 393.547C549.303 392.893 548.889 392.507 547.975 391.92C547.163 391.179 546.915 390.475 546.238 389.542C547.932 389.475 550.369 389.316 551.007 387.186C551.442 388.595 546.667 378.569 547.318 379.665Z"/><path fill="#7CDAFD" fill-opacity="0.74117649" d="M457.124 415.132C461.409 416.801 464.633 417.426 469.289 416.245C469.169 415.494 469.65 415.384 469.782 414.763C469.866 414.368 468.652 414.061 468.903 413.292C469.402 413.02 470.69 413.345 471.134 413.411L472.091 413.534C473.931 414.98 481.198 417.283 483.52 417.854C479.447 417.894 478.234 417.857 474.292 417.264C467.996 416.186 462.996 418.647 456.697 417.458C455.247 417.184 455.082 416.307 454.381 415.046L454.129 414.63C455.206 414.839 456.029 415.006 457.124 415.132Z"/><path fill="#FEFEFE" fill-opacity="0.80392158" d="M490.509 419.528C493.602 420.26 496.143 420.688 499.246 421.609C498.622 421.946 496.414 422.669 496.248 423.001C494.385 426.736 493.34 427.611 492.262 431.558C490.277 428.465 494.799 425.922 488.713 423.299C488.03 423.004 489.196 421.48 490.023 421.433C490.33 421.416 490.197 420.178 490.509 419.528Z"/><path fill="#FEFEFE" fill-opacity="0.94901961" d="M549.976 586.861C555.956 589.49 560.428 586.658 565.687 588.707C564.848 590.641 565.654 589.811 566.003 591.211C565.747 591.391 549.935 590.793 548.566 588.92C549.029 588.229 549.499 587.542 549.976 586.861Z"/><path fill="#FEFEFE" fill-opacity="0.20392157" d="M624.2 476.994C624.879 476.453 625.543 475.867 626.242 475.37C626.938 476.087 630.254 478.058 630.671 478.832C631.323 480.04 628.992 482.511 630.006 485.207L629.887 485.531C627.635 484.026 629.506 483.946 628.752 481.835C628.688 481.656 627.16 481.155 627.221 480.494C627.208 479.385 628.627 479.198 627.012 477.958C626.892 477.916 626.773 477.873 626.654 477.831C626.79 477.778 623.202 484.714 623.468 484.553C623.472 484.435 623.475 484.317 623.478 484.199C622.834 484.156 621.177 487.024 620.907 487.515L620.496 485.615C620.819 484.488 623.66 477.525 624.2 476.994Z"/><path fill="#7FD5FB" fill-opacity="0.89803922" d="M456.396 447.932C458.291 446.042 465.413 439.151 467.372 437.761C467.868 439.615 468.651 439.802 469.238 441.731C468.362 442.55 466.356 444.435 465.484 445.108L464.522 445.164C460.883 445.323 461.242 447.511 456.396 447.932Z"/><path fill="#FEFEFE" fill-opacity="0.22745098" d="M494.533 311.617C499.735 304.362 498.772 315.426 501.878 311.472C502.217 311.839 504.129 316.119 504.46 316.801L503.722 318.424C501.045 315.837 501.764 314.547 498.929 316.594L498.128 317.064C496.994 315.399 495.496 313.319 494.533 311.617Z"/><path fill="#7FD5FB" fill-opacity="0.72549021" d="M449.134 413.949C449.832 411.204 456.48 408.499 459.857 410.303C457.436 411.359 461.156 411.206 461.207 412.231C460.152 413.283 458.459 414.483 457.124 415.132C456.029 415.006 455.206 414.839 454.129 414.63C452.216 414.694 451.016 414.35 449.134 413.949Z"/><path fill="#FEFEFE" fill-opacity="0.96470588" d="M440.484 470.637C442.05 471.262 442.03 471.264 443.408 472.298C443.231 472.418 442.266 472.833 442.262 472.879C442.093 474.616 441.712 479.206 442.429 480.553C441.733 483.892 440.415 487.346 439.597 491.377C438.307 487.451 436.773 481.452 440.501 479.497C442.984 478.195 440.081 475.273 439.249 474.2C439.253 474.68 439.815 472.484 439.844 471.572L440.484 470.637Z"/><path fill="#E7BC7B" fill-opacity="0.52156866" d="M630.764 449.085C632.269 451.808 631.123 453.457 634.142 454.022C633.715 455.483 631.183 460.829 630.432 462.574C628.479 460.974 628.809 460.439 627.537 457.915C628.222 455.656 629.81 451.339 630.764 449.085Z"/><path fill="#FEFEFE" fill-opacity="0.10196079" d="M564.16 444.763C573.214 445.752 567.501 439.469 573.894 435.308L574.38 434.983L574.471 435.461C573.415 439.132 571.646 439.26 571.506 444.005C571.367 448.761 565.045 447.291 562.595 447.175C561.251 446.397 560.353 445.661 559.123 444.747C562.012 445.094 561.324 445.528 564.16 444.763Z"/><path fill="#FEFEFE" fill-opacity="0.57254905" d="M554.832 388.595C555.503 389.409 555.43 389.405 555.806 390.468C555.324 395.098 558.018 394.544 557.623 396.393C555.814 398.277 554.784 397.335 554.675 399.556C553.036 398.184 551.415 395.329 550.119 393.547C552.812 391.681 553.06 391.613 554.832 388.595Z"/><path fill="#FEFEFE" fill-opacity="0.32941177" d="M498.128 317.064L498.929 316.594C501.764 314.547 501.045 315.837 503.722 318.424L504.254 319.015C507.073 322.107 506.041 323.023 504.62 326.526C503.225 324.89 499.707 319.235 498.128 317.064Z"/><path fill="#7CDAFD" fill-opacity="0.52941179" d="M473.382 432.535C475.285 433.447 475.646 434.424 475.835 436.526C474.468 437.433 473.497 438.196 472.207 439.213C471.195 440.054 470.226 440.856 469.238 441.731C468.651 439.802 467.868 439.615 467.372 437.761C469.339 435.978 471.343 434.235 473.382 432.535Z"/><path fill="#FEFEFE" fill-opacity="0.96862745" d="M510.429 424.878C514.695 424.157 526.651 428.031 531.275 429.333L532.042 429.555C529.908 429.734 524.594 430.251 522.493 430.172C531.31 427.151 519.108 429.968 514.603 427.025C512.487 426.259 512.129 426.24 510.429 424.878Z"/><path fill="#FEFEFE" fill-opacity="0.46666667" d="M554.675 399.556C554.784 397.335 555.814 398.277 557.623 396.393C558.235 398.857 559.236 402.009 560.485 404.278C563.355 409.491 557.85 407.255 557.145 403.952C556.981 403.18 555.189 400.424 554.675 399.556Z"/><path fill="#FEFEFE" fill-opacity="0.082352944" d="M412.438 412.121C413.266 412.106 420.125 412.513 417.021 414.83C416.65 415.107 410.015 416.354 408.969 416.641C406.675 416.626 404.089 416.514 401.849 416.589C400.258 416.447 399.504 416.349 397.949 416.02C400.465 415.763 407.443 416.428 408.731 415.167C409.934 413.988 413.225 413.576 412.438 412.121Z"/><path fill="#E7BC7B" fill-opacity="0.22745098" d="M627.537 457.915C628.809 460.439 628.479 460.974 630.432 462.574C630.191 463.672 628.179 467.997 627.615 469.047C627.896 463.852 626.343 468.06 624.228 466.872C625.289 463.409 626.089 461.623 627.378 458.329L627.537 457.915Z"/><path fill="#FEFEFE" fill-opacity="0.027450981" d="M586.812 483.388C590.376 482.961 588.16 482.452 589.858 482.111C590.833 484.866 591.626 487.78 592.354 490.61C592.147 490.898 592.056 491.184 591.706 491.229C591.343 491.084 590.968 490.949 590.595 491.073C590.082 491.651 590.041 493.74 589.933 494.565L589.967 495.444C589.024 491.34 588.297 487.374 586.812 483.388Z"/><path fill="#FEFEFE" fill-opacity="0.070588239" d="M625.958 473.608C629.235 472.637 630.418 475.128 632.383 477.355C631.699 479.977 631.736 479.842 631.77 482.516C631.334 483.658 630.812 484.307 630.006 485.207C628.992 482.511 631.323 480.04 630.671 478.832C630.254 478.058 626.938 476.087 626.242 475.37C625.543 475.867 624.879 476.453 624.2 476.994C624.879 475.368 624.954 475.036 625.958 473.608Z"/><path fill="#7CDAFD" fill-opacity="0.82745099" d="M478.354 428.442C479.705 429.338 480.156 430.136 480.915 431.603C479.509 433.263 477.965 434.8 476.299 436.2C476.144 436.308 475.989 436.417 475.835 436.526C475.646 434.424 475.285 433.447 473.382 432.535C474.14 431.588 477.355 429.187 478.354 428.442Z"/><path fill="#FEFEFE" fill-opacity="0.72549021" d="M514.603 427.025C519.108 429.968 531.31 427.151 522.493 430.172C520.952 429.951 520.341 429.299 520.03 430.837C517.373 430.723 514.089 430.684 511.532 430.468C512.536 428.643 512.961 428.346 514.603 427.025Z"/><path fill="#7CDAFD" fill-opacity="0.61176473" d="M629.892 774.24C638.243 774.07 639.446 773.35 646.904 769.564L646.659 770.504C646.087 772.736 646.028 773.446 644.006 775.164C639.65 773.282 638.765 775.995 634.305 774.755C632.677 774.303 631.541 774.344 629.892 774.24Z"/><path fill="#FEFEFE" fill-opacity="0.6156863" d="M587.806 475.129C588.544 476.837 589.687 480.33 589.858 482.111C588.16 482.452 590.376 482.961 586.812 483.388C586.152 481.353 584.955 479.091 584.638 477.013C585.724 476.735 587.115 476.011 587.806 475.129Z"/><path fill="#FEFEFE" fill-opacity="0.20784314" d="M565.467 431.16C569.243 431.225 568.525 435.226 567.227 437.492C565.458 440.581 564.633 439.087 563.067 437.378C563.782 436.101 564.107 435.431 564.672 434.059C564.813 432.673 564.857 432.372 565.467 431.16Z"/><path fill="#7CDAFD" fill-opacity="0.89411765" d="M484.886 422.157L485.655 422.122C485.323 425.521 484.912 425.725 483.026 428.904C482.442 429.503 481.392 430.928 480.915 431.603C480.156 430.136 479.705 429.338 478.354 428.442C480.376 426.366 483.42 424.68 484.886 422.157Z"/><path fill="#FEFEFE" fill-opacity="0.13725491" d="M621.418 490.002C621.515 489.973 621.926 489.768 622.122 489.87C622.281 489.953 622.32 490.299 622.328 490.44C622.346 490.793 622.276 491.145 622.251 491.498C622.219 491.948 622.137 492.854 622.541 493.183C622.74 493.346 623.417 493.227 623.505 493.223C623.683 493.215 623.9 493.237 624.01 493.399C624.144 493.598 624.26 493.808 624.385 494.012C622.842 496.085 621.311 498.367 619.715 500.363C619.549 500.04 619.433 499.754 619.298 499.427C617.162 497.788 618.937 496.716 620.147 494.295L620.4 493.79C621.259 492.097 621.289 491.852 621.418 490.002Z"/><path fill="#7CDAFD" fill-opacity="0.9137255" d="M442.798 461.522C444.058 460.068 445.873 458.36 447.285 457.012C448.136 459.257 448.373 459.605 446.472 461.474C445.418 462.511 446.092 463.41 445.583 465.163L444.687 466.316C443.92 466.99 443.55 467.524 442.869 468.324C442.658 465.214 444.415 464.004 442.798 461.522Z"/><path fill="#FEFEFE" fill-opacity="0.95686275" d="M426.32 411.997C430.721 412.068 435.728 412.693 440.125 413.214C442.406 414.496 443.909 415.563 446.033 416.823C442.127 416.67 440.452 415.417 437.048 414.196C433.669 412.984 429.684 413.81 426.32 411.997Z"/><path fill="#7FD5FB" fill-opacity="0.94509804" d="M805.352 539.128C803.93 544.661 802.739 548.14 796.367 546.877C801.482 543.436 801.298 543.396 805.352 539.128Z"/><path fill="#FEFEFE" fill-opacity="0.23137255" d="M558.618 440.309C560.781 442.101 561.831 443.083 564.16 444.763C561.324 445.528 562.012 445.094 559.123 444.747C558.167 444.208 557.902 444.176 557.282 443.38C557.184 439.817 554.777 441.562 558.618 440.309Z"/><path fill="#FEFEFE" fill-opacity="0.34117648" d="M626.884 490.059C626.502 490.095 624.143 490.573 624.125 490.375C623.888 487.751 624.966 484.327 627.768 484.163C628.35 485.508 627.258 486.289 628.281 487.829C627.823 488.984 627.68 489.069 626.884 490.059Z"/><path fill="#7CDAFD" fill-opacity="0.27058825" d="M623.575 573.385C627.38 573.621 629.347 574.024 633.127 575.144C628.884 575.346 622.69 576.242 619.288 574.113C620.72 573.864 622.147 573.648 623.575 573.385Z"/><path fill="#FEFEFE" fill-opacity="0.039215688" d="M548.437 377.858C549.066 378.532 549.399 379.439 549.845 380.297C548.728 380.029 548.499 379.814 547.318 379.665C543.959 380.329 544.192 379.697 542.338 382.592C541.939 375.221 545.085 378.902 547.543 378.144L548.437 377.858Z"/><path fill="#7CDAFD" fill-opacity="0.92941177" d="M644.277 570.453C647.837 569.69 653.487 568.745 657.089 568.406C656.423 571.609 646.817 570.952 644.277 570.453Z"/><path fill="#FEFEFE" fill-opacity="0.91764706" d="M444.687 466.316C444.917 469.063 445.928 469.024 444.072 471.411C443.847 471.704 443.626 472 443.408 472.298C442.03 471.264 442.05 471.262 440.484 470.637C441.128 470.123 441.675 469.571 442.24 468.969L442.869 468.324C443.55 467.524 443.92 466.99 444.687 466.316Z"/><path fill="#FEFEFE" fill-opacity="0.12941177" d="M592.354 490.61C592.846 492.052 593.097 493.115 593.423 494.592C591.555 495.167 591.61 495.456 589.933 494.565C590.041 493.74 590.082 491.651 590.595 491.073C590.968 490.949 591.343 491.084 591.706 491.229C592.056 491.184 592.147 490.898 592.354 490.61Z"/><path fill="#E7BC7B" fill-opacity="0.57254905" d="M634.546 438.9C637.071 444.177 634.069 446.562 632.659 444.144C633.268 442.462 634.001 440.563 634.546 438.9Z"/><path fill="#7FD5FB" fill-opacity="0.68627453" d="M740.175 556.564C741.328 556.495 742.48 556.415 743.631 556.324C745.067 559.764 736.906 557.919 735.439 557.395C737.104 557.1 738.498 556.944 740.175 556.564Z"/><path fill="#7CDAFD" fill-opacity="0.89019608" d="M760.891 553.986C762.578 553.599 764.284 553.3 766.002 553.088C768.295 552.793 769.734 552.555 772.069 552.439C769.9 555.038 764.306 554.185 760.891 553.986Z"/><path fill="#ECBD77" fill-opacity="0.61960787" d="M638.557 427.379C640.154 430.08 640.862 432.751 636.642 432.922C637.275 431.041 637.961 429.278 638.557 427.379Z"/><path fill="#7CDAFD" fill-opacity="0.83529413" d="M591.18 578.02C593.61 577.495 596.581 577.068 599.055 576.82C599.909 579.431 593.009 578.677 591.18 578.02Z"/><path fill="#ECBD77" fill-opacity="0.56470591" d="M625.884 473.084C623.471 471.603 624.422 467.167 627.314 469.637C626.826 471.035 626.546 471.761 625.884 473.084Z"/><path fill="#7CDAFD" fill-opacity="0.73333335" d="M791.163 549.135C795.188 550.6 789.172 551.487 785.924 550.462C787.79 550.033 789.316 549.677 791.163 549.135Z"/><path fill="#FEFEFE" fill-opacity="0.88627452" d="M536.825 433.833C538.687 432.552 540.136 431.974 540.079 434.837C538.969 434.512 537.917 434.22 536.825 433.833Z"/></svg>